%FSDAX23Y23*%
%MOMM*%
%SFA1B1*%

%IPPOS*%
%ADD9500C,0.787400*%
%ADD9501C,0.838200*%
%ADD9502C,0.889000*%
%ADD9503C,0.990600*%
%ADD9504C,1.092200*%
%ADD9505C,3.987800*%
%ADD9506C,11.988800*%
%LNpcb_control-1*%
%LPD*%
G54D9500*
X81305Y18465D03*
Y23469D03*
X76428Y36474D03*
Y41478D03*
X38354Y30175D03*
Y25196D03*
X31470Y22885D03*
X26492D03*
X20878Y25196D03*
Y30175D03*
X26619Y33426D03*
X31597D03*
G54D9501*
X13258Y02133D03*
Y09753D03*
X47498D03*
Y02133D03*
X57251D03*
Y09753D03*
X78003D03*
Y02133D03*
X89255D03*
Y09753D03*
X12115Y44881D03*
Y52501D03*
G54D9502*
X06756Y61214D03*
Y63754D03*
X14757Y63449D03*
Y60909D03*
Y65989D03*
G54D9503*
X25679Y59740D03*
X28219D03*
X30759D03*
X33299D03*
X35839D03*
X38379D03*
X40919D03*
X43459D03*
X45999D03*
X48539D03*
X51079D03*
X53619D03*
Y82600D03*
X51079D03*
X48539D03*
X45999D03*
X43459D03*
X40919D03*
X38379D03*
X35839D03*
X33299D03*
X30759D03*
X28219D03*
X25679D03*
X56159D03*
X58699D03*
X61239D03*
X63779D03*
X66319D03*
X68859D03*
X71399D03*
Y59740D03*
X68859D03*
X66319D03*
X63779D03*
X61239D03*
X58699D03*
X56159D03*
G54D9504*
X18008Y10007D03*
X42011D03*
X69773Y10668D03*
Y34671D03*
X87503Y26085D03*
Y50063D03*
X50012Y40005D03*
X42011Y45999D03*
X18008D03*
X50012Y16002D03*
X09347D03*
Y40005D03*
G54D9505*
X03759Y03987D03*
X96240D03*
X03759Y81254D03*
X96240D03*
G54D9506*
X29997Y10007D03*
X69773Y22682D03*
X87503Y38074D03*
X50012Y27990D03*
X29997Y45999D03*
X09347Y27990D03*
M02*