%FSDAX23Y23*%
%MOMM*%
%SFA1B1*%

%IPPOS*%
%ADD10C,0.888998*%
%ADD11C,1.849996*%
%ADD12R,1.849996X1.849996*%
%ADD13C,13.999972*%
%ADD14R,1.849996X1.849996*%
%ADD15C,1.999996*%
%ADD16R,1.349997X1.349997*%
%ADD17C,1.349997*%
%ADD18R,1.349997X1.349997*%
%ADD19C,1.399997*%
%ADD20C,5.999988*%
%ADD21R,1.499997X1.499997*%
%ADD22C,1.499997*%
%LNpcb_control-1*%
%LPD*%
G54D10*
X92354Y03911D02*
Y21304D01*
X77999Y02129D02*
X90572D01*
X92354Y03911*
Y21304D02*
X97618Y26568D01*
X41999Y44108D02*
Y45999D01*
X31838Y33947D02*
X41999Y44108D01*
X31838Y33656D02*
Y33947D01*
X51079Y59892D02*
X51231Y59740D01*
X13249Y02129D02*
X47499D01*
X49123Y64516D02*
X51079Y62559D01*
X23291Y64516D02*
X49123D01*
X51079Y59892D02*
Y62559D01*
Y59749D02*
X51222D01*
X20872Y30185D02*
Y36652D01*
X17524Y39999D02*
X20872Y36652D01*
Y30185D02*
X30693D01*
X48539Y48031*
X47361Y09749D02*
X47499D01*
X47111Y09999D02*
X47361Y09749D01*
X41999Y09999D02*
X47111D01*
X36880Y17881D02*
Y19583D01*
X41999Y09999D02*
Y12762D01*
X33578Y22885D02*
X36880Y19583D01*
Y17881D02*
X41999Y12762D01*
X31445Y22885D02*
X31481D01*
X31419Y22860D02*
X31445Y22885D01*
X33578*
X22326Y18415D02*
X24714D01*
X26481Y20182D02*
Y22885D01*
X24714Y18415D02*
X26481Y20182D01*
Y22885D02*
Y24728D01*
X17957Y14046D02*
X22326Y18415D01*
X17957Y10007D02*
Y14046D01*
Y10007D02*
X17965Y09999D01*
X17999*
X41999Y45999D02*
Y53326D01*
X40563Y54762D02*
X41999Y53326D01*
X24053Y54762D02*
X40563D01*
X21412Y57404D02*
X24053Y54762D01*
X21412Y57404D02*
Y62636D01*
X23291Y64516*
X31608Y33426D02*
X31838Y33656D01*
X17999Y42832D02*
Y45999D01*
X22377Y38455D02*
X24587D01*
X26608Y36434*
X17999Y42832D02*
X22377Y38455D01*
X26608Y33426D02*
Y36434D01*
X12194Y44805D02*
X14376D01*
X15570Y45999*
X17999*
X12119Y44880D02*
X12194Y44805D01*
X12119Y44880D02*
Y44893D01*
X31089Y27533D02*
X53619Y50063D01*
X29286Y27533D02*
X31089D01*
X26481Y24728D02*
X29286Y27533D01*
X38584Y31904D02*
X46680Y39999D01*
X38584Y30416D02*
Y31904D01*
X49999Y39999D02*
X57101D01*
X46680D02*
X49999D01*
X38354Y30185D02*
X38584Y30416D01*
X11119Y02129D02*
X13249D01*
X89249Y09749D02*
Y17429D01*
X87499Y19179D02*
X89249Y17429D01*
X87499Y19179D02*
Y26074D01*
X84485Y26258D02*
X87316D01*
X76426Y34317D02*
X84485Y26258D01*
X76426Y34317D02*
Y36478D01*
X87316Y26258D02*
X87499Y26074D01*
X76426Y41478D02*
Y47525D01*
X68834Y55118D02*
X76426Y47525D01*
X68834Y55118D02*
Y59944D01*
X68859Y59917*
Y59749D02*
Y59917D01*
X84618Y50074D02*
X87499D01*
X82550Y48006D02*
X84618Y50074D01*
X82550Y44958D02*
Y48006D01*
X78994Y41402D02*
X82550Y44958D01*
X76454Y41402D02*
X78994D01*
X76426Y41429D02*
X76454Y41402D01*
X76426Y41429D02*
Y41478D01*
X94427Y59749D02*
X97618Y56559D01*
X71399Y59749D02*
X94427D01*
X97618Y26568D02*
Y56559D01*
X78099Y13624D02*
X81209Y16734D01*
Y18558*
X73173Y34651D02*
X81280Y26544D01*
Y23652D02*
Y26544D01*
X57249Y02129D02*
X77999D01*
X38354Y21070D02*
X43424Y15999D01*
X38354Y21070D02*
Y25398D01*
X15491Y15999D02*
X20828Y21336D01*
Y24743*
X04253Y52513D02*
X12119D01*
X00999Y49259D02*
X04253Y52513D01*
X00999Y12249D02*
Y49259D01*
X53619Y50063D02*
Y59629D01*
X09349Y39999D02*
X17524D01*
X74262Y09749D02*
X77999D01*
X70036Y10651D02*
X73361D01*
X74262Y09749*
X48539Y48031D02*
Y59749D01*
X14749Y63459D02*
X16469D01*
X18249Y65239D02*
Y80999D01*
X16469Y63459D02*
X18249Y65239D01*
X10569Y09749D02*
X13249D01*
X09349Y10969D02*
X10569Y09749D01*
X09349Y10969D02*
Y15999D01*
X15491*
X49749D02*
X49999Y15749D01*
X69774Y34674D02*
Y46874D01*
X66319Y50329D02*
X69774Y46874D01*
X43424Y15999D02*
X49749D01*
X78099Y10424D02*
Y13624D01*
X77949Y10274D02*
X78099Y10424D01*
X70036Y34651D02*
X73173D01*
X66319Y50329D02*
Y59644D01*
X66424Y59749*
X66319D02*
X66424D01*
X47499Y02129D02*
X57249D01*
X00999Y12249D02*
X11119Y02129D01*
X55499Y15749D02*
X57249Y13999D01*
X49999Y15749D02*
X55499D01*
X57249Y10190D02*
Y13999D01*
X57101Y39999D02*
X58699Y41598D01*
Y59729*
X53499Y59749D02*
X53619Y59629D01*
X53499Y59749D02*
X53619D01*
X12119Y52513D02*
Y58130D01*
X06749Y61209D02*
X09039D01*
X12119Y58130*
X19859Y82609D02*
X25679D01*
X18249Y80999D02*
X19859Y82609D01*
X14669Y60999D02*
X14749Y60919D01*
X11749Y60999D02*
X14669D01*
X08999Y63749D02*
X11749Y60999D01*
X06749Y63749D02*
X08999D01*
G54D11*
X17999Y45999D03*
X41999Y09999D03*
X87499Y26074D03*
X49999Y15999D03*
X09349D03*
X69774Y10674D03*
G54D12*
X41999Y45999D03*
X17999Y09999D03*
G54D13*
X29999Y45999D03*
Y09999D03*
X87499Y38074D03*
X49999Y27999D03*
X09349D03*
X69774Y22674D03*
G54D14*
X87499Y50074D03*
X49999Y39999D03*
X09349D03*
X69774Y34674D03*
G54D15*
X71399Y82609D03*
Y59749D03*
X68859D03*
X66319D03*
X63779D03*
X61239D03*
X58699D03*
X56159D03*
X53619D03*
X51079D03*
X48539D03*
X45999D03*
X43459D03*
X40919D03*
X38379D03*
X35839D03*
X33299D03*
X30759D03*
X28219D03*
X25679D03*
Y82609D03*
X28219D03*
X30759D03*
X33299D03*
X35839D03*
X38379D03*
X40919D03*
X43459D03*
X45999D03*
X48539D03*
X51079D03*
X53619D03*
X56159D03*
X58699D03*
X61239D03*
X63779D03*
X66319D03*
X68859D03*
G54D16*
X20872Y30185D03*
X38354D03*
X81297Y23463D03*
X76426Y41478D03*
G54D17*
X20872Y25185D03*
X38354D03*
X26608Y33426D03*
X81297Y18463D03*
X76426Y36478D03*
X31481Y22885D03*
G54D18*
X31608Y33426D03*
X26481Y22885D03*
G54D19*
X57249Y09749D03*
Y02129D03*
X47499Y09749D03*
Y02129D03*
X13249Y09749D03*
Y02129D03*
X89249D03*
Y09749D03*
X77999Y02129D03*
Y09749D03*
X12119Y52513D03*
Y44893D03*
G54D20*
X96249Y03999D03*
X03749D03*
X96249Y81249D03*
X03749D03*
G54D21*
X06749Y63749D03*
X14749Y60919D03*
G54D22*
X06749Y61209D03*
X14749Y63459D03*
Y65999D03*
M02*