G04*
G04 #@! TF.GenerationSoftware,Altium Limited,Altium Designer,25.3.3 (18)*
G04*
G04 Layer_Physical_Order=2*
G04 Layer_Color=16711680*
%FSLAX44Y44*%
%MOMM*%
G71*
G04*
G04 #@! TF.SameCoordinates,4C30E03C-539E-46F3-8DAC-70420B4CFD04*
G04*
G04*
G04 #@! TF.FilePolarity,Positive*
G04*
G01*
G75*
%ADD10C,0.8890*%
%ADD11C,1.8500*%
%ADD12R,1.8500X1.8500*%
%ADD13C,14.0000*%
%ADD14R,1.8500X1.8500*%
%ADD15C,2.0000*%
%ADD16R,1.3500X1.3500*%
%ADD17C,1.3500*%
%ADD18R,1.3500X1.3500*%
%ADD19C,1.4000*%
%ADD20C,6.0000*%
%ADD21R,1.5000X1.5000*%
%ADD22C,1.5000*%
D10*
X923544Y39116D02*
Y213044D01*
X780000Y21300D02*
X905728D01*
X923544Y39116D01*
Y213044D02*
X976189Y265689D01*
X420000Y441082D02*
Y460000D01*
X318389Y339471D02*
X420000Y441082D01*
X318389Y336569D02*
Y339471D01*
X510800Y598926D02*
X512318Y597408D01*
X132500Y21300D02*
X475000D01*
X491236Y645160D02*
X510800Y625596D01*
X232918Y645160D02*
X491236D01*
X510800Y598926D02*
Y625596D01*
Y597500D02*
X512226D01*
X208728Y301860D02*
Y366522D01*
X175250Y400000D02*
X208728Y366522D01*
Y301860D02*
X306940D01*
X485400Y480320D01*
X473617Y97500D02*
X475000D01*
X471117Y100000D02*
X473617Y97500D01*
X420000Y100000D02*
X471117D01*
X368808Y178816D02*
Y195834D01*
X420000Y100000D02*
Y127624D01*
X335788Y228854D02*
X368808Y195834D01*
Y178816D02*
X420000Y127624D01*
X314452Y228854D02*
X314814D01*
X314198Y228600D02*
X314452Y228854D01*
X335788D01*
X223266Y184150D02*
X247142D01*
X264814Y201822D02*
Y228854D01*
X247142Y184150D02*
X264814Y201822D01*
Y228854D02*
Y247288D01*
X179578Y140462D02*
X223266Y184150D01*
X179578Y100076D02*
Y140462D01*
Y100076D02*
X179654Y100000D01*
X180000D01*
X420000Y460000D02*
Y533262D01*
X405638Y547624D02*
X420000Y533262D01*
X240538Y547624D02*
X405638D01*
X214122Y574040D02*
X240538Y547624D01*
X214122Y574040D02*
Y626364D01*
X232918Y645160D01*
X316084Y334264D02*
X318389Y336569D01*
X180000Y428330D02*
Y460000D01*
X223774Y384556D02*
X245872D01*
X266084Y364344D01*
X180000Y428330D02*
X223774Y384556D01*
X266084Y334264D02*
Y364344D01*
X121944Y448056D02*
X143764D01*
X155708Y460000D01*
X180000D01*
X121194Y448806D02*
X121944Y448056D01*
X121194Y448806D02*
Y448932D01*
X310896Y275336D02*
X536200Y500640D01*
X292862Y275336D02*
X310896D01*
X264814Y247288D02*
X292862Y275336D01*
X385845Y319043D02*
X466802Y400000D01*
X385845Y304165D02*
Y319043D01*
X500000Y400000D02*
X571012D01*
X466802D02*
X500000D01*
X383540Y301860D02*
X385845Y304165D01*
X111200Y21300D02*
X132500D01*
X892500Y97500D02*
Y174300D01*
X875000Y191800D02*
X892500Y174300D01*
X875000Y191800D02*
Y260750D01*
X844851Y262589D02*
X873161D01*
X764267Y343173D02*
X844851Y262589D01*
X764267Y343173D02*
Y364790D01*
X873161Y262589D02*
X875000Y260750D01*
X764267Y414790D02*
Y475253D01*
X688340Y551180D02*
X764267Y475253D01*
X688340Y551180D02*
Y599440D01*
X688600Y599180D01*
Y597500D02*
Y599180D01*
X846190Y500750D02*
X875000D01*
X825500Y480060D02*
X846190Y500750D01*
X825500Y449580D02*
Y480060D01*
X789940Y414020D02*
X825500Y449580D01*
X764540Y414020D02*
X789940D01*
X764267Y414293D02*
X764540Y414020D01*
X764267Y414293D02*
Y414790D01*
X944280Y597500D02*
X976189Y565591D01*
X714000Y597500D02*
X944280D01*
X976189Y265689D02*
Y565591D01*
X781000Y136250D02*
X812096Y167346D01*
Y185584D01*
X731736Y346514D02*
X812800Y265450D01*
Y236526D02*
Y265450D01*
X572500Y21300D02*
X780000D01*
X383540Y210710D02*
X434250Y160000D01*
X383540Y210710D02*
Y253990D01*
X154920Y160000D02*
X208280Y213360D01*
Y247434D01*
X42532Y525132D02*
X121194D01*
X10000Y492600D02*
X42532Y525132D01*
X10000Y122500D02*
Y492600D01*
X536200Y500640D02*
Y596300D01*
X93500Y400000D02*
X175250D01*
X742628Y97500D02*
X780000D01*
X700364Y106514D02*
X733614D01*
X742628Y97500D01*
X485400Y480320D02*
Y597500D01*
X147500Y634600D02*
X164700D01*
X182500Y652400D02*
Y810000D01*
X164700Y634600D02*
X182500Y652400D01*
X105700Y97500D02*
X132500D01*
X93500Y109700D02*
X105700Y97500D01*
X93500Y109700D02*
Y160000D01*
X154920D01*
X497500D02*
X500000Y157500D01*
X697750Y346750D02*
Y468750D01*
X663200Y503300D02*
X697750Y468750D01*
X434250Y160000D02*
X497500D01*
X781000Y104250D02*
Y136250D01*
X779500Y102750D02*
X781000Y104250D01*
X700364Y346514D02*
X731736D01*
X663200Y503300D02*
Y596450D01*
X664250Y597500D01*
X663200D02*
X664250D01*
X475000Y21300D02*
X572500D01*
X10000Y122500D02*
X111200Y21300D01*
X555000Y157500D02*
X572500Y140000D01*
X500000Y157500D02*
X555000D01*
X572500Y101906D02*
Y140000D01*
X571012Y400000D02*
X587000Y415988D01*
Y597299D01*
X535000Y597500D02*
X536200Y596300D01*
X535000Y597500D02*
X536200D01*
X121194Y525132D02*
Y581306D01*
X67500Y612100D02*
X90400D01*
X121194Y581306D01*
X198600Y826100D02*
X256800D01*
X182500Y810000D02*
X198600Y826100D01*
X146700Y610000D02*
X147500Y609200D01*
X117500Y610000D02*
X146700D01*
X90000Y637500D02*
X117500Y610000D01*
X67500Y637500D02*
X90000D01*
D11*
X180000Y460000D02*
D03*
X420000Y100000D02*
D03*
X875000Y260750D02*
D03*
X500000Y160000D02*
D03*
X93500D02*
D03*
X697750Y106750D02*
D03*
D12*
X420000Y460000D02*
D03*
X180000Y100000D02*
D03*
D13*
X300000Y460000D02*
D03*
Y100000D02*
D03*
X875000Y380750D02*
D03*
X500000Y280000D02*
D03*
X93500D02*
D03*
X697750Y226750D02*
D03*
D14*
X875000Y500750D02*
D03*
X500000Y400000D02*
D03*
X93500D02*
D03*
X697750Y346750D02*
D03*
D15*
X714000Y826100D02*
D03*
Y597500D02*
D03*
X688600D02*
D03*
X663200D02*
D03*
X637800D02*
D03*
X612400D02*
D03*
X587000D02*
D03*
X561600D02*
D03*
X536200D02*
D03*
X510800D02*
D03*
X485400D02*
D03*
X460000D02*
D03*
X434600D02*
D03*
X409200D02*
D03*
X383800D02*
D03*
X358400D02*
D03*
X333000D02*
D03*
X307600D02*
D03*
X282200D02*
D03*
X256800D02*
D03*
Y826100D02*
D03*
X282200D02*
D03*
X307600D02*
D03*
X333000D02*
D03*
X358400D02*
D03*
X383800D02*
D03*
X409200D02*
D03*
X434600D02*
D03*
X460000D02*
D03*
X485400D02*
D03*
X510800D02*
D03*
X536200D02*
D03*
X561600D02*
D03*
X587000D02*
D03*
X612400D02*
D03*
X637800D02*
D03*
X663200D02*
D03*
X688600D02*
D03*
D16*
X208728Y301860D02*
D03*
X383540D02*
D03*
X812978Y234633D02*
D03*
X764267Y414790D02*
D03*
D17*
X208728Y251860D02*
D03*
X383540D02*
D03*
X266084Y334264D02*
D03*
X812978Y184633D02*
D03*
X764267Y364790D02*
D03*
X314814Y228854D02*
D03*
D18*
X316084Y334264D02*
D03*
X264814Y228854D02*
D03*
D19*
X572500Y97500D02*
D03*
Y21300D02*
D03*
X475000Y97500D02*
D03*
Y21300D02*
D03*
X132500Y97500D02*
D03*
Y21300D02*
D03*
X892500D02*
D03*
Y97500D02*
D03*
X780000Y21300D02*
D03*
Y97500D02*
D03*
X121194Y525132D02*
D03*
Y448932D02*
D03*
D20*
X962500Y40000D02*
D03*
X37500D02*
D03*
X962500Y812500D02*
D03*
X37500D02*
D03*
D21*
X67500Y637500D02*
D03*
X147500Y609200D02*
D03*
D22*
X67500Y612100D02*
D03*
X147500Y634600D02*
D03*
Y660000D02*
D03*
M02*
