M48
;Layer_Color=9474304
;FILE_FORMAT=2:3
INCH,LZ
;TYPE=PLATED
T01F00S00C0.031
T02F00S00C0.033
T03F00S00C0.035
T04F00S00C0.039
T05F00S00C0.043
T06F00S00C0.157
T07F00S00C0.472
%
T01
X03201Y00727
X03201Y00924
X03009Y01436
X03009Y01633
X0151Y01188
X0151Y00992
X01239Y00901
X01043Y00901
X00822Y00992
X00822Y01188
X01048Y01316
X01244Y01316
T02
X00522Y00084
Y00384
X0187
Y00084
X02254
Y00384
X03071
Y00084
X03514
Y00384
X00477Y01767
Y02067
T03
X00266Y0241
Y0251
X00581Y02498
Y02398
Y02598
T04
X01011Y02352
X01111
X01211
X01311
X01411
X01511
X01611
X01711
X01811
X01911
X02011
X02111
Y03252
X02011
X01911
X01811
X01711
X01611
X01511
X01411
X01311
X01211
X01111
X01011
X02211
X02311
X02411
X02511
X02611
X02711
X02811
Y02352
X02711
X02611
X02511
X02411
X02311
X02211
T05
X00709Y00394
X01654
X02747Y0042
Y01365
X03445Y01027
Y01971
X01969Y01575
X01654Y01811
X00709
X01969Y0063
X00368
Y01575
T06
X00148Y00157
X03789
X00148Y03199
X03789
T07
X01181Y00394
X02747Y00893
X03445Y01499
X01969Y01102
X01181Y01811
X00368Y01102
M30
